<svg width="141" height="199" viewBox="0 0 141 199" fill="none" xmlns="http://www.w3.org/2000/svg">
<path d="M41.5341 20.0227C41.2879 19.0189 40.8996 18.1383 40.3693 17.3807C39.839 16.6042 39.1761 15.9508 38.3807 15.4205C37.6042 14.8712 36.6951 14.464 35.6534 14.1989C34.6307 13.9148 33.5038 13.7727 32.2727 13.7727C29.6212 13.7727 27.358 14.4072 25.483 15.6761C23.6269 16.9451 22.2064 18.7727 21.2216 21.1591C20.2557 23.5455 19.7727 26.4242 19.7727 29.7955C19.7727 33.2045 20.2367 36.1212 21.1648 38.5455C22.0928 40.9697 23.4754 42.8258 25.3125 44.1136C27.1496 45.4015 29.4318 46.0455 32.1591 46.0455C34.5644 46.0455 36.5625 45.6951 38.1534 44.9943C39.7633 44.2936 40.9659 43.2992 41.7614 42.0114C42.5568 40.7235 42.9545 39.2083 42.9545 37.4659L45.6818 37.75H32.3864V26.5H58.1818V34.5682C58.1818 39.8712 57.0549 44.4072 54.8011 48.1761C52.5663 51.9261 49.4792 54.8049 45.5398 56.8125C41.6193 58.8011 37.1212 59.7955 32.0455 59.7955C26.3826 59.7955 21.411 58.5928 17.1307 56.1875C12.8504 53.7822 9.50758 50.3542 7.10227 45.9034C4.71591 41.4527 3.52273 36.1591 3.52273 30.0227C3.52273 25.2121 4.25189 20.9508 5.71023 17.2386C7.1875 13.5265 9.23295 10.392 11.8466 7.83523C14.4602 5.25947 17.4811 3.31818 20.9091 2.01136C24.3371 0.685603 28.0114 0.0227251 31.9318 0.0227251C35.3788 0.0227251 38.5795 0.51515 41.5341 1.5C44.5076 2.46591 47.1307 3.84848 49.4034 5.64773C51.6951 7.42803 53.5417 9.53977 54.9432 11.983C56.3447 14.4261 57.197 17.1061 57.5 20.0227H41.5341Z" fill="#ECECEC"/>
<path d="M101.731 20.0227C101.485 19.0189 101.096 18.1383 100.566 17.3807C100.036 16.6042 99.373 15.9508 98.5776 15.4205C97.801 14.8712 96.892 14.464 95.8503 14.1989C94.8276 13.9148 93.7007 13.7727 92.4696 13.7727C89.8181 13.7727 87.5548 14.4072 85.6798 15.6761C83.8238 16.9451 82.4033 18.7727 81.4185 21.1591C80.4526 23.5455 79.9696 26.4242 79.9696 29.7955C79.9696 33.2045 80.4336 36.1212 81.3616 38.5455C82.2897 40.9697 83.6723 42.8258 85.5094 44.1136C87.3465 45.4015 89.6287 46.0455 92.356 46.0455C94.7613 46.0455 96.7594 45.6951 98.3503 44.9943C99.9601 44.2936 101.163 43.2992 101.958 42.0114C102.754 40.7235 103.151 39.2083 103.151 37.4659L105.879 37.75H92.5832V26.5H118.379V34.5682C118.379 39.8712 117.252 44.4072 114.998 48.1761C112.763 51.9261 109.676 54.8049 105.737 56.8125C101.816 58.8011 97.3181 59.7955 92.2423 59.7955C86.5795 59.7955 81.6079 58.5928 77.3276 56.1875C73.0473 53.7822 69.7045 50.3542 67.2991 45.9034C64.9128 41.4527 63.7196 36.1591 63.7196 30.0227C63.7196 25.2121 64.4488 20.9508 65.9071 17.2386C67.3844 13.5265 69.4298 10.392 72.0435 7.83523C74.6571 5.25947 77.6779 3.31818 81.106 2.01136C84.534 0.685603 88.2082 0.0227251 92.1287 0.0227251C95.5757 0.0227251 98.7764 0.51515 101.731 1.5C104.704 2.46591 107.328 3.84848 109.6 5.64773C111.892 7.42803 113.739 9.53977 115.14 11.983C116.542 14.4261 117.394 17.1061 117.697 20.0227H101.731Z" fill="black"/>
<path d="M3.75 129V70.8182H19.5455V116.273H43.0682V129H3.75ZM101.951 99.9091C101.951 106.386 100.692 111.85 98.1727 116.301C95.6538 120.733 92.2542 124.095 87.9739 126.386C83.6936 128.659 78.9208 129.795 73.6557 129.795C68.3527 129.795 63.561 128.65 59.2807 126.358C55.0193 124.047 51.6292 120.676 49.1102 116.244C46.6102 111.794 45.3602 106.348 45.3602 99.9091C45.3602 93.4318 46.6102 87.9773 49.1102 83.5455C51.6292 79.0947 55.0193 75.733 59.2807 73.4602C63.561 71.1686 68.3527 70.0227 73.6557 70.0227C78.9208 70.0227 83.6936 71.1686 87.9739 73.4602C92.2542 75.733 95.6538 79.0947 98.1727 83.5455C100.692 87.9773 101.951 93.4318 101.951 99.9091ZM85.7011 99.9091C85.7011 96.4242 85.2371 93.4886 84.3091 91.1023C83.4 88.697 82.0458 86.8788 80.2466 85.6477C78.4663 84.3977 76.2693 83.7727 73.6557 83.7727C71.042 83.7727 68.8356 84.3977 67.0364 85.6477C65.2561 86.8788 63.9019 88.697 62.9739 91.1023C62.0648 93.4886 61.6102 96.4242 61.6102 99.9091C61.6102 103.394 62.0648 106.339 62.9739 108.744C63.9019 111.131 65.2561 112.949 67.0364 114.199C68.8356 115.43 71.042 116.045 73.6557 116.045C76.2693 116.045 78.4663 115.43 80.2466 114.199C82.0458 112.949 83.4 111.131 84.3091 108.744C85.2371 106.339 85.7011 103.394 85.7011 99.9091Z" fill="black"/>
<path opacity="0.2" d="M138.307 69.3636L125.182 118.125H123.83L136.955 69.3636H138.307Z" fill="#1E1E1E"/>
<path d="M3.75 199V140.818H28.8636C33.1818 140.818 36.9602 141.604 40.1989 143.176C43.4375 144.748 45.9564 147.011 47.7557 149.966C49.5549 152.92 50.4545 156.462 50.4545 160.591C50.4545 164.758 49.5265 168.271 47.6705 171.131C45.8333 173.991 43.2481 176.15 39.9148 177.608C36.6004 179.066 32.7273 179.795 28.2955 179.795H13.2955V167.523H25.1136C26.9697 167.523 28.5511 167.295 29.858 166.841C31.1837 166.367 32.197 165.619 32.8977 164.597C33.6174 163.574 33.9773 162.239 33.9773 160.591C33.9773 158.924 33.6174 157.57 32.8977 156.528C32.197 155.468 31.1837 154.691 29.858 154.199C28.5511 153.687 26.9697 153.432 25.1136 153.432H19.5455V199H3.75ZM37.8409 172.295L52.3864 199H35.2273L21.0227 172.295H37.8409ZM50.4668 140.818H68.0804L79.444 164.455H79.8986L91.2622 140.818H108.876L87.5122 180.705V199H71.8304V180.705L50.4668 140.818Z" fill="black"/>
</svg>
