<?xml version="1.0" encoding="UTF-8"?>
<svg id="Layer_2" data-name="Layer 2" xmlns="http://www.w3.org/2000/svg" viewBox="0 0 120.88 47.26">
  <defs>
    <style>
      .cls-1 {
        fill: none;
        stroke: #161616;
        stroke-miterlimit: 10;
      }

      .cls-2 {
        fill: #161616;
      }
    </style>
  </defs>
  <g id="Layer_1-2" data-name="Layer 1">
    <g>
      <path class="cls-2" d="M9.8,21.46h8.67v12.5c0,6.31-3.15,9.91-9.23,9.91S0,40.27,0,33.97V13.47C0,7.16,3.15,3.56,9.23,3.56s9.23,3.6,9.23,9.91v3.83h-5.86v-4.22c0-2.82-1.24-3.89-3.21-3.89s-3.21,1.07-3.21,3.89v21.29c0,2.82,1.24,3.83,3.21,3.83s3.21-1.01,3.21-3.83v-7.26h-2.82v-5.63Z"/>
      <g>
        <path class="cls-2" d="M117.29,5.2c-.29,0-.54-.07-.75-.2s-.37-.33-.48-.56-.17-.51-.17-.82.06-.59.17-.83c.12-.24.28-.43.49-.56s.45-.2.73-.2c.22,0,.41.04.59.12s.32.19.43.34c.11.14.18.31.21.51h-.47c-.04-.14-.12-.27-.24-.37-.12-.11-.29-.16-.5-.16-.19,0-.35.05-.49.14-.14.1-.25.23-.32.4-.08.17-.12.38-.12.61s.04.45.11.62c.08.18.18.31.32.41.14.1.3.15.49.15.12,0,.23-.02.34-.06.1-.04.19-.1.26-.18s.12-.18.15-.29h.47c-.03.18-.09.35-.2.49-.11.15-.24.26-.42.35-.17.08-.37.13-.6.13Z"/>
        <circle class="cls-1" cx="117.28" cy="3.6" r="3.1"/>
      </g>
      <g>
        <path class="cls-2" d="M80.6,16.51v-3.72c0-4.22-1.63-6.76-5.91-6.76h-5.58v17.06h4.17c4.62,0,7.32-1.3,7.32-6.59Z"/>
        <path class="cls-2" d="M53.52,5.7c-4.34,0-6.03,3.15-6.03,7.43v20.5c0,4.28,1.69,7.43,6.03,7.43s6.14-3.15,6.14-7.43V13.13c0-4.28-1.75-7.43-6.14-7.43Z"/>
        <path class="cls-2" d="M21.62,1.12v46.14h89.53V1.12H21.62ZM41.18,43.09h-14.98V3.67h2.59v37.05h12.39v2.36ZM62.25,33.46c0,5.74-2.65,9.97-8.73,9.97s-8.62-4.22-8.62-9.97V13.3c0-5.74,2.65-9.97,8.62-9.97s8.73,4.22,8.73,9.97v20.16ZM81.45,43.09c-.68-1.18-.84-2.59-.84-4.73v-6.19c0-5.24-2.87-6.7-7.38-6.7h-4.11v17.63h-2.59V3.67h8.22c6.03,0,8.45,3.32,8.45,8.9v3.44c0,4.62-1.8,7.26-5.69,8.17,4.05.9,5.69,3.77,5.69,8.05v6.14c0,1.63.11,3.44.96,4.73h-2.7ZM98.4,27.94v15.15h-2.59v-15.15l-8.84-24.27h2.7l7.55,20.72,7.55-20.72h2.53l-8.9,24.27Z"/>
      </g>
    </g>
  </g>
</svg>